<mxfile host="65bd71144e">
    <diagram id="g5PU9oOn4Q8MzJ1IsGeJ" name="Grobplanung">
        <mxGraphModel dx="487" dy="344" grid="1" gridSize="10" guides="1" tooltips="1" connect="1" arrows="1" fold="1" page="1" pageScale="1" pageWidth="827" pageHeight="1169" math="0" shadow="0">
            <root>
                <mxCell id="0"/>
                <mxCell id="1" parent="0"/>
                <mxCell id="11" value="" style="edgeStyle=none;html=1;" edge="1" parent="1" source="2" target="6">
                    <mxGeometry relative="1" as="geometry"/>
                </mxCell>
                <mxCell id="2" value="Start" style="rounded=1;whiteSpace=wrap;html=1;" vertex="1" parent="1">
                    <mxGeometry x="160" y="40" width="120" height="40" as="geometry"/>
                </mxCell>
                <mxCell id="3" value="Stop" style="rounded=1;whiteSpace=wrap;html=1;" vertex="1" parent="1">
                    <mxGeometry x="162.5" y="640" width="120" height="40" as="geometry"/>
                </mxCell>
                <mxCell id="13" value="" style="edgeStyle=none;html=1;" edge="1" parent="1" source="5" target="7">
                    <mxGeometry relative="1" as="geometry"/>
                </mxCell>
                <mxCell id="5" value="Eingabe/Var Namen" style="shape=parallelogram;perimeter=parallelogramPerimeter;whiteSpace=wrap;html=1;fixedSize=1;" vertex="1" parent="1">
                    <mxGeometry x="135" y="200" width="170" height="40" as="geometry"/>
                </mxCell>
                <mxCell id="12" value="" style="edgeStyle=none;html=1;" edge="1" parent="1" source="6" target="5">
                    <mxGeometry relative="1" as="geometry"/>
                </mxCell>
                <mxCell id="6" value="Variablen für&lt;br&gt;Name + Alter" style="rounded=0;whiteSpace=wrap;html=1;" vertex="1" parent="1">
                    <mxGeometry x="160" y="120" width="120" height="40" as="geometry"/>
                </mxCell>
                <mxCell id="14" value="" style="edgeStyle=none;html=1;" edge="1" parent="1" source="7" target="8">
                    <mxGeometry relative="1" as="geometry"/>
                </mxCell>
                <mxCell id="7" value="Eingabe Ziffer" style="shape=parallelogram;perimeter=parallelogramPerimeter;whiteSpace=wrap;html=1;fixedSize=1;" vertex="1" parent="1">
                    <mxGeometry x="135" y="280" width="170" height="40" as="geometry"/>
                </mxCell>
                <mxCell id="15" value="" style="edgeStyle=none;html=1;" edge="1" parent="1" source="8" target="9">
                    <mxGeometry relative="1" as="geometry"/>
                </mxCell>
                <mxCell id="8" value="Konvertierung Ziffer -Zahl / Var" style="rounded=0;whiteSpace=wrap;html=1;" vertex="1" parent="1">
                    <mxGeometry x="140" y="360" width="165" height="40" as="geometry"/>
                </mxCell>
                <mxCell id="16" value="" style="edgeStyle=none;html=1;" edge="1" parent="1" source="9" target="10">
                    <mxGeometry relative="1" as="geometry"/>
                </mxCell>
                <mxCell id="9" value="Auswahl des Getränks" style="shape=process;whiteSpace=wrap;html=1;backgroundOutline=1;" vertex="1" parent="1">
                    <mxGeometry x="140" y="440" width="160" height="40" as="geometry"/>
                </mxCell>
                <mxCell id="17" value="" style="edgeStyle=none;html=1;" edge="1" parent="1" source="10" target="3">
                    <mxGeometry relative="1" as="geometry"/>
                </mxCell>
                <mxCell id="10" value="Ausgabe&amp;nbsp;&lt;br&gt;Name / Getränk" style="shape=parallelogram;perimeter=parallelogramPerimeter;whiteSpace=wrap;html=1;fixedSize=1;" vertex="1" parent="1">
                    <mxGeometry x="120" y="520" width="200" height="40" as="geometry"/>
                </mxCell>
            </root>
        </mxGraphModel>
    </diagram>
    <diagram id="8W-gV6nZsUrih1CPA-lV" name="Var_1">
        <mxGraphModel dx="696" dy="491" grid="1" gridSize="10" guides="1" tooltips="1" connect="1" arrows="1" fold="1" page="1" pageScale="1" pageWidth="827" pageHeight="1169" math="0" shadow="0">
            <root>
                <mxCell id="0"/>
                <mxCell id="1" parent="0"/>
                <mxCell id="CrmgsNA7PakQnj4Jn1WP-26" value="" style="edgeStyle=none;html=1;" edge="1" parent="1" source="CrmgsNA7PakQnj4Jn1WP-1" target="CrmgsNA7PakQnj4Jn1WP-4">
                    <mxGeometry relative="1" as="geometry"/>
                </mxCell>
                <mxCell id="_h8mOguC8rtUFZjfshlh-9" value="" style="edgeStyle=none;html=1;" edge="1" parent="1" source="CrmgsNA7PakQnj4Jn1WP-1" target="_h8mOguC8rtUFZjfshlh-8">
                    <mxGeometry relative="1" as="geometry"/>
                </mxCell>
                <mxCell id="CrmgsNA7PakQnj4Jn1WP-1" value="a &amp;gt; 0" style="rhombus;whiteSpace=wrap;html=1;" vertex="1" parent="1">
                    <mxGeometry x="190" y="350" width="80" height="80" as="geometry"/>
                </mxCell>
                <mxCell id="CrmgsNA7PakQnj4Jn1WP-7" value="" style="edgeStyle=none;html=1;exitX=1;exitY=0.5;exitDx=0;exitDy=0;entryX=0.5;entryY=0;entryDx=0;entryDy=0;" edge="1" parent="1" source="CrmgsNA7PakQnj4Jn1WP-4" target="CrmgsNA7PakQnj4Jn1WP-6">
                    <mxGeometry relative="1" as="geometry">
                        <Array as="points">
                            <mxPoint x="350" y="530"/>
                        </Array>
                    </mxGeometry>
                </mxCell>
                <mxCell id="CrmgsNA7PakQnj4Jn1WP-9" value="" style="edgeStyle=none;html=1;" edge="1" parent="1" source="CrmgsNA7PakQnj4Jn1WP-4" target="CrmgsNA7PakQnj4Jn1WP-8">
                    <mxGeometry relative="1" as="geometry"/>
                </mxCell>
                <mxCell id="CrmgsNA7PakQnj4Jn1WP-4" value="a &amp;lt; 6" style="rhombus;whiteSpace=wrap;html=1;" vertex="1" parent="1">
                    <mxGeometry x="190" y="490" width="80" height="80" as="geometry"/>
                </mxCell>
                <mxCell id="CrmgsNA7PakQnj4Jn1WP-11" value="" style="edgeStyle=none;html=1;" edge="1" parent="1" source="CrmgsNA7PakQnj4Jn1WP-6" target="CrmgsNA7PakQnj4Jn1WP-10">
                    <mxGeometry relative="1" as="geometry"/>
                </mxCell>
                <mxCell id="CrmgsNA7PakQnj4Jn1WP-14" value="" style="edgeStyle=none;html=1;exitX=1;exitY=0.5;exitDx=0;exitDy=0;entryX=0.5;entryY=0;entryDx=0;entryDy=0;" edge="1" parent="1" source="CrmgsNA7PakQnj4Jn1WP-6" target="CrmgsNA7PakQnj4Jn1WP-13">
                    <mxGeometry relative="1" as="geometry">
                        <Array as="points">
                            <mxPoint x="470" y="610"/>
                        </Array>
                    </mxGeometry>
                </mxCell>
                <mxCell id="CrmgsNA7PakQnj4Jn1WP-6" value="a &amp;lt;&amp;nbsp; 13" style="rhombus;whiteSpace=wrap;html=1;" vertex="1" parent="1">
                    <mxGeometry x="310" y="570" width="80" height="80" as="geometry"/>
                </mxCell>
                <mxCell id="-paTm9LgnAMwHXu-QOxm-4" value="" style="edgeStyle=none;html=1;" edge="1" parent="1" source="CrmgsNA7PakQnj4Jn1WP-8" target="-paTm9LgnAMwHXu-QOxm-3">
                    <mxGeometry relative="1" as="geometry"/>
                </mxCell>
                <mxCell id="CrmgsNA7PakQnj4Jn1WP-8" value="Milch" style="whiteSpace=wrap;html=1;" vertex="1" parent="1">
                    <mxGeometry x="190" y="770" width="80" height="40" as="geometry"/>
                </mxCell>
                <mxCell id="-paTm9LgnAMwHXu-QOxm-5" value="" style="edgeStyle=none;html=1;" edge="1" parent="1" source="CrmgsNA7PakQnj4Jn1WP-10">
                    <mxGeometry relative="1" as="geometry">
                        <mxPoint x="230" y="840" as="targetPoint"/>
                        <Array as="points">
                            <mxPoint x="350" y="840"/>
                        </Array>
                    </mxGeometry>
                </mxCell>
                <mxCell id="CrmgsNA7PakQnj4Jn1WP-10" value="Saft" style="whiteSpace=wrap;html=1;" vertex="1" parent="1">
                    <mxGeometry x="310" y="770" width="80" height="40" as="geometry"/>
                </mxCell>
                <mxCell id="CrmgsNA7PakQnj4Jn1WP-18" value="" style="edgeStyle=none;html=1;" edge="1" parent="1" source="CrmgsNA7PakQnj4Jn1WP-13" target="CrmgsNA7PakQnj4Jn1WP-17">
                    <mxGeometry relative="1" as="geometry"/>
                </mxCell>
                <mxCell id="CrmgsNA7PakQnj4Jn1WP-25" value="" style="edgeStyle=none;html=1;entryX=0.5;entryY=0;entryDx=0;entryDy=0;" edge="1" parent="1" source="CrmgsNA7PakQnj4Jn1WP-13" target="CrmgsNA7PakQnj4Jn1WP-19">
                    <mxGeometry relative="1" as="geometry">
                        <mxPoint x="570" y="690" as="targetPoint"/>
                        <Array as="points">
                            <mxPoint x="587" y="690"/>
                        </Array>
                    </mxGeometry>
                </mxCell>
                <mxCell id="CrmgsNA7PakQnj4Jn1WP-13" value="a &amp;lt;&amp;nbsp; 19" style="rhombus;whiteSpace=wrap;html=1;" vertex="1" parent="1">
                    <mxGeometry x="430" y="650" width="80" height="80" as="geometry"/>
                </mxCell>
                <mxCell id="CrmgsNA7PakQnj4Jn1WP-17" value="Cola" style="whiteSpace=wrap;html=1;" vertex="1" parent="1">
                    <mxGeometry x="430" y="770" width="80" height="40" as="geometry"/>
                </mxCell>
                <mxCell id="CrmgsNA7PakQnj4Jn1WP-19" value="Wein" style="whiteSpace=wrap;html=1;" vertex="1" parent="1">
                    <mxGeometry x="544" y="770" width="86" height="40" as="geometry"/>
                </mxCell>
                <mxCell id="CrmgsNA7PakQnj4Jn1WP-27" value="" style="edgeStyle=none;html=1;" edge="1" parent="1" target="CrmgsNA7PakQnj4Jn1WP-1">
                    <mxGeometry relative="1" as="geometry">
                        <mxPoint x="230" y="310" as="sourcePoint"/>
                    </mxGeometry>
                </mxCell>
                <mxCell id="_h8mOguC8rtUFZjfshlh-2" value="" style="edgeStyle=none;html=1;startArrow=none;" edge="1" parent="1" source="_h8mOguC8rtUFZjfshlh-12">
                    <mxGeometry relative="1" as="geometry">
                        <mxPoint x="270" y="270" as="sourcePoint"/>
                        <mxPoint x="710" y="910" as="targetPoint"/>
                        <Array as="points">
                            <mxPoint x="710" y="270"/>
                        </Array>
                    </mxGeometry>
                </mxCell>
                <mxCell id="_h8mOguC8rtUFZjfshlh-13" value="" style="edgeStyle=none;html=1;" edge="1" parent="1" source="CrmgsNA7PakQnj4Jn1WP-21" target="_h8mOguC8rtUFZjfshlh-12">
                    <mxGeometry relative="1" as="geometry"/>
                </mxCell>
                <mxCell id="CrmgsNA7PakQnj4Jn1WP-21" value="age ?" style="rhombus;whiteSpace=wrap;html=1;" vertex="1" parent="1">
                    <mxGeometry x="190" y="230" width="80" height="80" as="geometry"/>
                </mxCell>
                <mxCell id="-paTm9LgnAMwHXu-QOxm-1" value="Stop" style="rounded=1;whiteSpace=wrap;html=1;" vertex="1" parent="1">
                    <mxGeometry x="404" y="1040" width="120" height="40" as="geometry"/>
                </mxCell>
                <mxCell id="-paTm9LgnAMwHXu-QOxm-2" value="" style="edgeStyle=none;html=1;exitX=0.5;exitY=1;exitDx=0;exitDy=0;entryX=0.5;entryY=0;entryDx=0;entryDy=0;" edge="1" parent="1" source="-paTm9LgnAMwHXu-QOxm-3" target="-paTm9LgnAMwHXu-QOxm-1">
                    <mxGeometry relative="1" as="geometry"/>
                </mxCell>
                <mxCell id="-paTm9LgnAMwHXu-QOxm-3" value="Ausgabe&amp;nbsp;&lt;br&gt;Name / Getränk" style="shape=parallelogram;perimeter=parallelogramPerimeter;whiteSpace=wrap;html=1;fixedSize=1;" vertex="1" parent="1">
                    <mxGeometry x="130" y="910" width="200" height="40" as="geometry"/>
                </mxCell>
                <mxCell id="-paTm9LgnAMwHXu-QOxm-6" value="" style="edgeStyle=none;html=1;exitX=0.5;exitY=1;exitDx=0;exitDy=0;" edge="1" parent="1" source="CrmgsNA7PakQnj4Jn1WP-17">
                    <mxGeometry relative="1" as="geometry">
                        <mxPoint x="360" y="819.9999999999999" as="sourcePoint"/>
                        <mxPoint x="230" y="850" as="targetPoint"/>
                        <Array as="points">
                            <mxPoint x="470" y="850"/>
                        </Array>
                    </mxGeometry>
                </mxCell>
                <mxCell id="-paTm9LgnAMwHXu-QOxm-7" value="" style="edgeStyle=none;html=1;exitX=0.429;exitY=0.983;exitDx=0;exitDy=0;exitPerimeter=0;" edge="1" parent="1" source="CrmgsNA7PakQnj4Jn1WP-19">
                    <mxGeometry relative="1" as="geometry">
                        <mxPoint x="480" y="819.9999999999999" as="sourcePoint"/>
                        <mxPoint x="230" y="860" as="targetPoint"/>
                        <Array as="points">
                            <mxPoint x="580" y="860"/>
                        </Array>
                    </mxGeometry>
                </mxCell>
                <mxCell id="_h8mOguC8rtUFZjfshlh-5" value="" style="edgeStyle=none;html=1;entryX=0.5;entryY=0;entryDx=0;entryDy=0;exitX=0.5;exitY=1;exitDx=0;exitDy=0;" edge="1" parent="1" source="_h8mOguC8rtUFZjfshlh-3" target="-paTm9LgnAMwHXu-QOxm-1">
                    <mxGeometry relative="1" as="geometry">
                        <mxPoint x="710" y="1020" as="targetPoint"/>
                    </mxGeometry>
                </mxCell>
                <mxCell id="_h8mOguC8rtUFZjfshlh-3" value="Ausgabe&amp;nbsp;&lt;br&gt;Tee" style="shape=parallelogram;perimeter=parallelogramPerimeter;whiteSpace=wrap;html=1;fixedSize=1;" vertex="1" parent="1">
                    <mxGeometry x="630" y="910" width="160" height="40" as="geometry"/>
                </mxCell>
                <mxCell id="_h8mOguC8rtUFZjfshlh-7" value="" style="edgeStyle=none;html=1;" edge="1" parent="1" source="_h8mOguC8rtUFZjfshlh-6" target="CrmgsNA7PakQnj4Jn1WP-21">
                    <mxGeometry relative="1" as="geometry"/>
                </mxCell>
                <mxCell id="_h8mOguC8rtUFZjfshlh-6" value="Eingabe / etc" style="shape=process;whiteSpace=wrap;html=1;backgroundOutline=1;" vertex="1" parent="1">
                    <mxGeometry x="170" y="90" width="120" height="60" as="geometry"/>
                </mxCell>
                <mxCell id="_h8mOguC8rtUFZjfshlh-8" value="" style="shape=waypoint;sketch=0;size=6;pointerEvents=1;points=[];fillColor=default;resizable=0;rotatable=0;perimeter=centerPerimeter;snapToPoint=1;" vertex="1" parent="1">
                    <mxGeometry x="700" y="380" width="20" height="20" as="geometry"/>
                </mxCell>
                <mxCell id="_h8mOguC8rtUFZjfshlh-14" value="" style="edgeStyle=none;html=1;startArrow=none;endArrow=none;" edge="1" parent="1" source="_h8mOguC8rtUFZjfshlh-8" target="_h8mOguC8rtUFZjfshlh-12">
                    <mxGeometry relative="1" as="geometry">
                        <mxPoint x="710" y="390" as="sourcePoint"/>
                        <mxPoint x="710" y="910" as="targetPoint"/>
                        <Array as="points"/>
                    </mxGeometry>
                </mxCell>
                <mxCell id="_h8mOguC8rtUFZjfshlh-12" value="" style="shape=waypoint;sketch=0;size=6;pointerEvents=1;points=[];fillColor=default;resizable=0;rotatable=0;perimeter=centerPerimeter;snapToPoint=1;" vertex="1" parent="1">
                    <mxGeometry x="700" y="260" width="20" height="20" as="geometry"/>
                </mxCell>
                <mxCell id="_h8mOguC8rtUFZjfshlh-15" value="false" style="text;html=1;strokeColor=none;fillColor=none;align=center;verticalAlign=middle;whiteSpace=wrap;rounded=0;" vertex="1" parent="1">
                    <mxGeometry x="270" y="230" width="60" height="30" as="geometry"/>
                </mxCell>
                <mxCell id="_h8mOguC8rtUFZjfshlh-16" value="true" style="text;html=1;strokeColor=none;fillColor=none;align=center;verticalAlign=middle;whiteSpace=wrap;rounded=0;" vertex="1" parent="1">
                    <mxGeometry x="250" y="310" width="60" height="30" as="geometry"/>
                </mxCell>
            </root>
        </mxGraphModel>
    </diagram>
</mxfile>